<svg width="564" height="279" viewBox="0 0 564 279" fill="none" xmlns="http://www.w3.org/2000/svg">
<rect width="564" height="279" rx="30" fill="white" fill-opacity="0.3"/>
<circle cx="349" cy="55" r="5" stroke="white" stroke-width="2"/>
<path d="M319.684 58.3477C319.684 59.9883 319.221 61.3301 318.295 62.373C317.381 63.416 316.08 64.1133 314.393 64.4648V64.6055C316.455 64.8633 317.984 65.5195 318.98 66.5742C319.977 67.6289 320.475 69.0117 320.475 70.7227C320.475 73.1719 319.625 75.0586 317.926 76.3828C316.227 77.6953 313.812 78.3516 310.684 78.3516C309.324 78.3516 308.076 78.2461 306.939 78.0352C305.814 77.8359 304.719 77.4785 303.652 76.9629V74.1855C304.766 74.7363 305.949 75.1582 307.203 75.4512C308.469 75.7324 309.664 75.873 310.789 75.873C315.23 75.873 317.451 74.1328 317.451 70.6523C317.451 67.5352 315.002 65.9766 310.104 65.9766H307.572V63.4629H310.139C312.143 63.4629 313.73 63.0234 314.902 62.1445C316.074 61.2539 316.66 60.0234 316.66 58.4531C316.66 57.1992 316.227 56.2148 315.359 55.5C314.504 54.7852 313.338 54.4277 311.861 54.4277C310.736 54.4277 309.676 54.5801 308.68 54.8848C307.684 55.1895 306.547 55.752 305.27 56.5723L303.793 54.6035C304.848 53.7715 306.061 53.1211 307.432 52.6523C308.814 52.1719 310.268 51.9316 311.791 51.9316C314.287 51.9316 316.227 52.5059 317.609 53.6543C318.992 54.791 319.684 56.3555 319.684 58.3477ZM335.17 78H332.322V59.6836C332.322 58.1602 332.369 56.7188 332.463 55.3594C332.217 55.6055 331.941 55.8633 331.637 56.1328C331.332 56.4023 329.938 57.5449 327.453 59.5605L325.906 57.5566L332.709 52.3008H335.17V78Z" fill="white"/>
<path d="M378.537 54.6035C375.713 54.6035 373.48 55.5469 371.84 57.4336C370.211 59.3086 369.396 61.8809 369.396 65.1504C369.396 68.5137 370.182 71.1152 371.752 72.9551C373.334 74.7832 375.584 75.6973 378.502 75.6973C380.295 75.6973 382.34 75.375 384.637 74.7305V77.3496C382.855 78.0176 380.658 78.3516 378.045 78.3516C374.26 78.3516 371.336 77.2031 369.273 74.9062C367.223 72.6094 366.197 69.3457 366.197 65.1152C366.197 62.4668 366.689 60.1465 367.674 58.1543C368.67 56.1621 370.1 54.627 371.963 53.5488C373.838 52.4707 376.041 51.9316 378.572 51.9316C381.268 51.9316 383.623 52.4238 385.639 53.4082L384.373 55.9746C382.428 55.0605 380.482 54.6035 378.537 54.6035Z" fill="white"/>
<path fill-rule="evenodd" clip-rule="evenodd" d="M309 88.1667C306.742 88.1667 304.917 89.9925 304.917 92.25C304.917 95.3125 309 99.8333 309 99.8333C309 99.8333 313.083 95.3125 313.083 92.25C313.083 89.9925 311.257 88.1667 309 88.1667ZM306.083 92.25C306.083 90.64 307.39 89.3333 309 89.3333C310.61 89.3333 311.917 90.64 311.917 92.25C311.917 93.93 310.237 96.4442 309 98.0133C307.787 96.4558 306.083 93.9125 306.083 92.25ZM307.542 92.25C307.542 91.4446 308.195 90.7917 309 90.7917C309.521 90.7917 310.002 91.0696 310.263 91.5208C310.523 91.972 310.523 92.528 310.263 92.9792C310.002 93.4304 309.521 93.7083 309 93.7083C308.195 93.7083 307.542 93.0554 307.542 92.25Z" fill="white"/>
<path d="M333.948 99H332.055L328.917 94.4746L327.953 95.2607V99H326.319V89.0059H327.953V93.7773C328.4 93.2305 328.844 92.7041 329.286 92.1982L331.986 89.0059H333.846C332.1 91.0566 330.849 92.5173 330.093 93.3877L333.948 99ZM336.71 99H335.104V91.4395H336.71V99ZM335.008 89.4365C335.008 89.1494 335.085 88.9284 335.24 88.7734C335.4 88.6185 335.625 88.541 335.917 88.541C336.2 88.541 336.418 88.6185 336.573 88.7734C336.733 88.9284 336.812 89.1494 336.812 89.4365C336.812 89.71 336.733 89.9264 336.573 90.0859C336.418 90.2409 336.2 90.3184 335.917 90.3184C335.625 90.3184 335.4 90.2409 335.24 90.0859C335.085 89.9264 335.008 89.71 335.008 89.4365ZM345.398 91.4395V92.3213L344.106 92.5605C344.225 92.7201 344.323 92.916 344.4 93.1484C344.478 93.3809 344.517 93.627 344.517 93.8867C344.517 94.666 344.248 95.279 343.71 95.7256C343.172 96.1722 342.432 96.3955 341.488 96.3955C341.247 96.3955 341.028 96.3773 340.832 96.3408C340.486 96.555 340.312 96.8057 340.312 97.0928C340.312 97.266 340.392 97.3958 340.552 97.4824C340.716 97.569 341.014 97.6123 341.447 97.6123H342.767C343.601 97.6123 344.234 97.79 344.667 98.1455C345.1 98.501 345.316 99.0137 345.316 99.6836C345.316 100.54 344.963 101.201 344.257 101.666C343.55 102.131 342.53 102.363 341.194 102.363C340.164 102.363 339.378 102.181 338.836 101.816C338.294 101.452 338.022 100.932 338.022 100.258C338.022 99.793 338.168 99.401 338.46 99.082C338.756 98.7676 339.169 98.5488 339.697 98.4258C339.483 98.3346 339.305 98.1888 339.164 97.9883C339.027 97.7832 338.959 97.569 338.959 97.3457C338.959 97.0632 339.039 96.8239 339.198 96.6279C339.358 96.432 339.595 96.2383 339.909 96.0469C339.517 95.8783 339.198 95.6048 338.952 95.2266C338.711 94.8438 338.59 94.3971 338.59 93.8867C338.59 93.0664 338.847 92.4307 339.362 91.9795C339.882 91.5283 340.62 91.3027 341.577 91.3027C341.791 91.3027 342.015 91.3187 342.247 91.3506C342.484 91.3779 342.662 91.4076 342.78 91.4395H345.398ZM339.458 100.176C339.458 100.522 339.613 100.789 339.923 100.976C340.237 101.162 340.677 101.256 341.242 101.256C342.117 101.256 342.769 101.131 343.197 100.88C343.626 100.629 343.84 100.297 343.84 99.8818C343.84 99.5537 343.721 99.319 343.484 99.1777C343.252 99.041 342.817 98.9727 342.179 98.9727H340.962C340.502 98.9727 340.135 99.0798 339.861 99.2939C339.592 99.5127 339.458 99.8066 339.458 100.176ZM340.148 93.8867C340.148 94.3607 340.269 94.7253 340.511 94.9805C340.757 95.2357 341.108 95.3633 341.563 95.3633C342.493 95.3633 342.958 94.8665 342.958 93.873C342.958 93.3809 342.842 93.0026 342.609 92.7383C342.382 92.4694 342.033 92.335 341.563 92.335C341.099 92.335 340.745 92.4671 340.504 92.7314C340.267 92.9958 340.148 93.3809 340.148 93.8867ZM351.537 99L351.216 97.9473H351.161C350.797 98.4076 350.43 98.722 350.061 98.8906C349.691 99.0547 349.217 99.1367 348.639 99.1367C347.896 99.1367 347.315 98.9362 346.896 98.5352C346.481 98.1341 346.273 97.5667 346.273 96.833C346.273 96.0537 346.563 95.4658 347.142 95.0693C347.72 94.6729 348.602 94.4564 349.787 94.4199L351.093 94.3789V93.9756C351.093 93.4925 350.979 93.1325 350.751 92.8955C350.528 92.654 350.179 92.5332 349.705 92.5332C349.318 92.5332 348.946 92.5902 348.591 92.7041C348.235 92.818 347.894 92.9525 347.565 93.1074L347.046 91.959C347.456 91.7448 347.905 91.583 348.393 91.4736C348.88 91.3597 349.34 91.3027 349.773 91.3027C350.735 91.3027 351.46 91.5124 351.947 91.9316C352.439 92.3509 352.686 93.0094 352.686 93.9072V99H351.537ZM349.145 97.9062C349.728 97.9062 350.195 97.7445 350.546 97.4209C350.901 97.0928 351.079 96.6348 351.079 96.0469V95.3906L350.108 95.4316C349.352 95.459 348.8 95.5866 348.454 95.8145C348.112 96.0378 347.941 96.3818 347.941 96.8467C347.941 97.1839 348.042 97.446 348.242 97.6328C348.443 97.8151 348.743 97.9062 349.145 97.9062ZM356.534 99H354.928V88.3633H356.534V99ZM360.444 99H358.838V91.4395H360.444V99ZM358.742 89.4365C358.742 89.1494 358.82 88.9284 358.975 88.7734C359.134 88.6185 359.36 88.541 359.651 88.541C359.934 88.541 360.153 88.6185 360.308 88.7734C360.467 88.9284 360.547 89.1494 360.547 89.4365C360.547 89.71 360.467 89.9264 360.308 90.0859C360.153 90.2409 359.934 90.3184 359.651 90.3184C359.36 90.3184 359.134 90.2409 358.975 90.0859C358.82 89.9264 358.742 89.71 358.742 89.4365Z" fill="white"/>
<path d="M249.671 40.1123C248.941 40.3836 248.836 40.8427 248.836 44.1399C248.836 45.9346 248.899 48.9814 248.983 50.9014C249.108 54.3029 249.129 54.4073 249.609 54.6368C249.942 54.7829 250.235 54.7829 250.61 54.616L251.132 54.3655V47.5832C251.132 41.0722 251.111 40.7801 250.715 40.3836C250.276 39.9453 250.193 39.9244 249.671 40.1123Z" fill="white"/>
<path d="M268.787 48.0423C266.846 50.2544 260.94 58.101 260.94 58.4766C260.94 59.1027 261.858 59.7079 262.401 59.4574C262.777 59.2696 270.248 49.8579 270.749 48.9396C270.936 48.5849 270.915 48.3971 270.644 47.9797C270.206 47.291 269.434 47.3328 268.787 48.0423Z" fill="white"/>
<path d="M227.759 49.357C226.987 50.1292 226.82 49.8787 232.455 56.3272C234.416 58.581 236.211 60.4591 236.461 60.5217C237.15 60.7304 237.776 60.2922 237.776 59.5827C237.776 59.1027 237.025 58.1219 233.894 54.5324C228.636 48.5014 228.636 48.4805 227.759 49.357Z" fill="white"/>
<path d="M247.897 56.8906C238.214 58.3723 232.1 67.6171 234.667 76.9036C236.19 82.5173 240.593 86.7745 246.311 88.1936C248.836 88.8405 252.614 88.6944 254.993 87.8805C257.413 87.0667 259.354 85.8354 261.274 83.9155C264.279 80.9104 265.74 77.5714 265.907 73.356C266.116 68.0136 264.091 63.6103 259.876 60.167C256.829 57.6836 251.758 56.2854 247.897 56.8906ZM252.843 59.8122C253.448 59.9374 254.617 60.3548 255.41 60.7304C262.297 63.9025 265.135 71.7908 261.838 78.5523C260.773 80.7226 258.123 83.4147 255.994 84.479C251.132 86.8788 245.289 86.1067 241.261 82.5173C239.821 81.2234 238.193 78.8444 237.567 77.0915C236.92 75.255 236.753 71.4987 237.233 69.5996C238.402 64.8624 242.242 61.0435 246.958 59.8957C248.377 59.5409 251.382 59.4992 252.843 59.8122Z" fill="white"/>
<path d="M274.609 67.4502C270.227 67.9719 268.453 68.264 268.203 68.5145C267.681 68.9527 267.743 69.7457 268.307 70.1005C268.703 70.3718 269.517 70.3092 275.256 69.6414C279.409 69.1405 281.871 68.7649 282.101 68.5771C282.852 67.951 282.205 66.6572 281.162 66.6989C280.891 66.7198 277.948 67.0537 274.609 67.4502Z" fill="white"/>
<path d="M218.013 68.7857C217.387 69.0153 217.22 69.7248 217.617 70.33C217.805 70.6222 218.055 70.8517 218.18 70.8517C218.306 70.8517 221.269 71.0813 224.754 71.3735C229.22 71.7491 231.223 71.8326 231.515 71.6865C232.371 71.2274 232.183 69.9127 231.244 69.704C230.994 69.6622 228.302 69.4118 225.255 69.1822C222.208 68.9527 219.453 68.7231 219.099 68.6814C218.765 68.6397 218.264 68.6814 218.013 68.7857Z" fill="white"/>
<path d="M233.289 81.4948C232.329 81.8495 222.208 88.4232 222.041 88.7988C221.791 89.3414 222.396 90.2596 223.001 90.2596C223.544 90.2596 234.374 83.4356 234.667 82.9347C235.105 82.0791 234.208 81.1609 233.289 81.4948Z" fill="white"/>
<path d="M266.616 81.933C266.053 82.1417 265.865 82.5799 266.032 83.2268C266.116 83.6025 267.368 84.3537 272.001 86.7954C275.59 88.6735 278.032 89.8422 278.303 89.8004C278.574 89.7587 278.887 89.5083 279.033 89.2161C279.534 88.2144 279.472 88.1727 271.062 83.8111C267.827 82.1208 267.013 81.7869 266.616 81.933Z" fill="white"/>
<path d="M243.014 89.3622C242.743 89.6126 241.72 92.0125 240.28 95.8732C238.068 101.696 237.985 102.009 238.298 102.489C238.611 102.989 239.299 103.136 239.8 102.822C240.113 102.635 244.663 90.6769 244.663 90.0717C244.663 89.6961 243.974 89.0074 243.598 89.0074C243.515 89.0074 243.264 89.1744 243.014 89.3622Z" fill="white"/>
<path d="M255.139 89.1535C254.346 89.4666 254.45 89.9465 256.579 96.0402C257.727 99.3374 258.812 102.259 258.979 102.509C259.396 103.177 260.46 103.156 260.752 102.489C260.94 102.071 260.669 101.07 258.853 95.8732C256.537 89.237 256.245 88.7153 255.139 89.1535Z" fill="white"/>
<path d="M74.7969 226L71.4062 217.141H71.3516C71.4154 217.842 71.4473 218.676 71.4473 219.643V226H70.374V216.006H72.124L75.2891 224.25H75.3438L78.5361 216.006H80.2725V226H79.1104V219.561C79.1104 218.822 79.1423 218.02 79.2061 217.154H79.1514L75.7334 226H74.7969ZM89.3164 222.247C89.3164 223.468 89.0088 224.423 88.3936 225.111C87.7783 225.795 86.9284 226.137 85.8438 226.137C85.1738 226.137 84.5791 225.979 84.0596 225.665C83.54 225.351 83.139 224.899 82.8564 224.312C82.5739 223.724 82.4326 223.035 82.4326 222.247C82.4326 221.026 82.738 220.076 83.3486 219.396C83.9593 218.713 84.807 218.371 85.8916 218.371C86.9398 218.371 87.7715 218.72 88.3867 219.417C89.0065 220.114 89.3164 221.058 89.3164 222.247ZM83.6084 222.247C83.6084 223.204 83.7998 223.933 84.1826 224.435C84.5654 224.936 85.1283 225.187 85.8711 225.187C86.6139 225.187 87.1768 224.938 87.5596 224.441C87.9469 223.94 88.1406 223.209 88.1406 222.247C88.1406 221.295 87.9469 220.572 87.5596 220.08C87.1768 219.583 86.6094 219.335 85.8574 219.335C85.1146 219.335 84.554 219.579 84.1758 220.066C83.7975 220.554 83.6084 221.281 83.6084 222.247ZM96.4395 226V221.153C96.4395 220.543 96.3005 220.087 96.0225 219.786C95.7445 219.485 95.3092 219.335 94.7168 219.335C93.9329 219.335 93.3587 219.547 92.9941 219.971C92.6296 220.395 92.4473 221.094 92.4473 222.069V226H91.3125V218.508H92.2354L92.4199 219.533H92.4746C92.707 219.164 93.0329 218.879 93.4521 218.679C93.8714 218.474 94.3385 218.371 94.8535 218.371C95.7559 218.371 96.4349 218.59 96.8906 219.027C97.3464 219.46 97.5742 220.155 97.5742 221.112V226H96.4395ZM105.012 224.995H104.95C104.426 225.756 103.642 226.137 102.599 226.137C101.619 226.137 100.855 225.802 100.309 225.132C99.7663 224.462 99.4951 223.509 99.4951 222.274C99.4951 221.039 99.7686 220.08 100.315 219.396C100.862 218.713 101.623 218.371 102.599 218.371C103.615 218.371 104.394 218.74 104.937 219.479H105.025L104.978 218.938L104.95 218.412V215.363H106.085V226H105.162L105.012 224.995ZM102.742 225.187C103.517 225.187 104.077 224.977 104.424 224.558C104.775 224.134 104.95 223.452 104.95 222.514V222.274C104.95 221.213 104.772 220.456 104.417 220.005C104.066 219.549 103.503 219.321 102.729 219.321C102.063 219.321 101.553 219.581 101.197 220.101C100.846 220.616 100.671 221.345 100.671 222.288C100.671 223.245 100.846 223.967 101.197 224.455C101.548 224.943 102.063 225.187 102.742 225.187ZM113.105 226L112.88 224.934H112.825C112.451 225.403 112.078 225.722 111.704 225.891C111.335 226.055 110.872 226.137 110.316 226.137C109.574 226.137 108.99 225.945 108.566 225.562C108.147 225.18 107.938 224.635 107.938 223.929C107.938 222.416 109.147 221.623 111.567 221.55L112.839 221.509V221.044C112.839 220.456 112.711 220.023 112.456 219.745C112.205 219.463 111.802 219.321 111.246 219.321C110.622 219.321 109.915 219.513 109.127 219.896L108.778 219.027C109.147 218.827 109.551 218.67 109.988 218.556C110.43 218.442 110.872 218.385 111.314 218.385C112.208 218.385 112.868 218.583 113.297 218.979C113.73 219.376 113.946 220.012 113.946 220.887V226H113.105ZM110.542 225.2C111.248 225.2 111.802 225.007 112.203 224.619C112.609 224.232 112.812 223.689 112.812 222.992V222.315L111.677 222.363C110.774 222.395 110.123 222.536 109.722 222.787C109.325 223.033 109.127 223.418 109.127 223.942C109.127 224.353 109.25 224.665 109.496 224.879C109.747 225.093 110.095 225.2 110.542 225.2ZM115.102 218.508H116.318L117.959 222.78C118.319 223.756 118.542 224.46 118.629 224.893H118.684C118.743 224.66 118.866 224.264 119.053 223.703C119.244 223.138 119.864 221.406 120.912 218.508H122.129L118.909 227.039C118.59 227.882 118.216 228.479 117.788 228.83C117.364 229.186 116.842 229.363 116.223 229.363C115.876 229.363 115.535 229.325 115.197 229.247V228.338C115.448 228.393 115.728 228.42 116.038 228.42C116.817 228.42 117.373 227.982 117.706 227.107L118.123 226.041L115.102 218.508Z" fill="white"/>
<circle cx="104.5" cy="188.5" r="1.5" stroke="white"/>
<path d="M93.2529 197H86.6836V196.022L89.3154 193.377C90.1175 192.566 90.6462 191.987 90.9014 191.641C91.1566 191.294 91.348 190.957 91.4756 190.629C91.6032 190.301 91.667 189.948 91.667 189.569C91.667 189.036 91.5052 188.615 91.1816 188.305C90.8581 187.99 90.4092 187.833 89.835 187.833C89.4202 187.833 89.026 187.901 88.6523 188.038C88.2832 188.175 87.8708 188.423 87.415 188.783L86.8135 188.011C87.734 187.245 88.7367 186.862 89.8213 186.862C90.7601 186.862 91.4961 187.104 92.0293 187.587C92.5625 188.065 92.8291 188.71 92.8291 189.521C92.8291 190.155 92.6514 190.782 92.2959 191.401C91.9404 192.021 91.2751 192.805 90.2998 193.753L88.1123 195.893V195.947H93.2529V197ZM97.8193 190.896C98.8721 190.896 99.6992 191.158 100.301 191.682C100.907 192.201 101.21 192.914 101.21 193.821C101.21 194.856 100.88 195.667 100.219 196.255C99.5625 196.843 98.6556 197.137 97.498 197.137C96.3724 197.137 95.5133 196.957 94.9209 196.597V195.503C95.2399 195.708 95.6364 195.87 96.1104 195.988C96.5843 196.102 97.0514 196.159 97.5117 196.159C98.3138 196.159 98.9359 195.97 99.3779 195.592C99.8245 195.214 100.048 194.667 100.048 193.951C100.048 192.557 99.1934 191.859 97.4844 191.859C97.0514 191.859 96.4727 191.925 95.748 192.058L95.1602 191.682L95.5361 187.006H100.506V188.052H96.5068L96.2539 191.053C96.778 190.948 97.2998 190.896 97.8193 190.896Z" fill="white"/>
<path d="M108.33 137.053C108.286 137.097 108.253 138.206 108.253 139.514C108.253 142.074 108.297 142.261 108.803 142.096C109.022 142.03 109.022 141.965 109 139.536L108.967 137.042L108.693 137.009C108.539 136.987 108.374 137.009 108.33 137.053Z" fill="white"/>
<path d="M114.044 141.25C113.297 142.206 112.627 143.085 112.561 143.206C112.418 143.47 112.583 143.8 112.857 143.8C113.077 143.8 115.945 140.206 115.945 139.932C115.945 139.745 115.725 139.514 115.55 139.514C115.473 139.514 114.791 140.294 114.044 141.25Z" fill="white"/>
<path d="M100.803 140.195C100.726 140.272 100.671 140.393 100.671 140.459C100.671 140.536 101.363 141.393 102.22 142.36C103.385 143.69 103.825 144.129 104.022 144.129C104.297 144.129 104.462 143.866 104.33 143.635C104.242 143.492 101.935 140.822 101.44 140.305C101.187 140.031 101.001 139.998 100.803 140.195Z" fill="white"/>
<path d="M107.297 142.976C105.924 143.349 104.693 144.239 103.946 145.382C102.891 147.03 102.792 149.052 103.682 151.074C103.759 151.239 103.682 151.25 102.946 151.195C102.001 151.118 100.814 151.349 99.9566 151.767C99.6599 151.909 99.4072 152.019 99.4072 152.008C99.3962 151.997 99.3083 151.69 99.1984 151.327C98.0336 147.459 93.9568 145.36 90.0338 146.602C88.847 146.975 87.924 147.569 87.0009 148.525C86.1438 149.437 85.6273 150.349 85.3196 151.536C85.1328 152.239 85.1108 152.272 84.8471 152.206C82.5065 151.613 80.3197 152.228 78.7593 153.92C77.7813 154.975 77.155 156.415 77.155 157.613C77.155 158.074 77.111 158.217 76.9682 158.272C74.6056 159.085 73.5507 160.074 73.1551 161.832C72.7265 163.7 73.188 165.327 74.5177 166.59C75.2319 167.283 76.0012 167.689 76.9572 167.92C78.0121 168.162 78.0451 168.162 78.4846 167.447L78.8802 166.81L77.9791 166.689C76.4956 166.48 75.4187 165.799 74.7814 164.656C74.4957 164.129 74.4627 163.986 74.4627 163.03C74.4627 162.085 74.4957 161.931 74.7814 161.404C75.2759 160.525 75.9462 160.085 77.6165 159.58L78.5725 159.294L78.5615 158.217C78.5615 157.481 78.6165 156.986 78.7483 156.602C79.3198 154.942 80.7263 153.734 82.4625 153.437C83.4735 153.272 84.3306 153.448 85.5394 154.063L86.4954 154.569V153.635C86.4954 152.47 86.6493 151.745 87.0778 150.832C87.4954 149.942 88.5943 148.822 89.5283 148.327C92.3414 146.855 95.9238 147.898 97.3743 150.635C97.9017 151.613 98.0336 152.25 98.0336 153.788V155.151L98.9017 154.327C100.33 152.953 101.352 152.514 102.891 152.624C105.594 152.81 107.583 155.283 107.154 157.942C107.088 158.382 107.055 158.788 107.088 158.843C107.121 158.887 107.385 158.964 107.671 159.008C108.88 159.173 110.022 159.997 110.572 161.107C110.901 161.777 110.912 161.865 110.868 162.777C110.825 163.546 110.759 163.876 110.506 164.404C110.132 165.173 109.264 166.085 108.616 166.393C108.363 166.502 108.143 166.656 108.143 166.722C108.143 167.019 108.506 167.865 108.649 167.865C109.022 167.865 110.011 167.228 110.671 166.557C111.429 165.799 111.989 164.821 112.198 163.909C112.484 162.667 112.253 161.107 111.627 160.03C111.22 159.338 110.22 158.459 109.363 158.074L108.638 157.733L108.616 157.052C108.583 156.162 108.429 155.492 108.066 154.712C107.902 154.36 107.759 154.052 107.737 154.019C107.715 153.986 108.033 153.986 108.44 153.997C111.857 154.184 114.704 151.019 114.198 147.613C113.715 144.382 110.385 142.151 107.297 142.976ZM110.022 144.008C112.198 144.69 113.616 146.964 113.209 149.14C112.693 151.953 109.978 153.646 107.286 152.821C104.11 151.865 102.968 147.8 105.187 145.393C106.506 143.965 108.253 143.47 110.022 144.008Z" fill="white"/>
<path d="M117.066 146.591C115.143 146.822 114.857 146.91 114.846 147.228C114.846 147.426 115.209 147.635 115.484 147.591C115.649 147.558 116.649 147.437 117.703 147.316C120.055 147.041 120.033 147.052 119.989 146.679C119.956 146.415 119.901 146.382 119.517 146.36C119.275 146.36 118.176 146.459 117.066 146.591Z" fill="white"/>
<path d="M97.2864 147.118C97.1105 147.294 97.1215 147.481 97.3083 147.635C97.4402 147.745 100.715 148.085 101.748 148.085C102.253 148.085 102.451 147.877 102.242 147.547C102.154 147.415 101.803 147.338 100.715 147.25C97.5501 146.975 97.4292 146.975 97.2864 147.118Z" fill="white"/>
<path d="M114.319 151.734C113.967 152.085 114.132 152.217 116.682 153.536C118.44 154.448 118.583 154.503 118.758 154.338C119.11 153.986 118.846 153.766 116.725 152.668C115.594 152.085 114.616 151.602 114.55 151.602C114.495 151.602 114.396 151.657 114.319 151.734Z" fill="white"/>
<path d="M110.341 154.305C110.22 154.448 110.264 154.679 110.616 155.7C111.781 159.074 111.835 159.195 112.253 159.041C112.352 158.997 112.429 158.865 112.429 158.733C112.429 158.459 111.033 154.47 110.868 154.261C110.715 154.085 110.506 154.096 110.341 154.305Z" fill="white"/>
<path d="M91.0118 163.777C90.9788 165.14 90.2316 167.689 89.5063 168.909C88.9899 169.766 88.9239 170.228 89.2426 170.876C89.5173 171.447 90.1876 171.92 90.8689 172.008C91.8579 172.14 92.9568 171.458 93.1876 170.568C93.3304 169.975 93.2425 169.645 92.6711 168.711C92.1546 167.854 91.6272 166.316 91.3854 164.953C91.2865 164.404 91.1656 163.81 91.1107 163.634C91.0228 163.327 91.0228 163.327 91.0118 163.777Z" fill="white"/>
<path d="M99.9786 164.459C99.9457 164.612 99.8358 165.074 99.7479 165.502C99.649 165.92 99.3962 166.623 99.1874 167.052C98.7589 167.92 98.7479 167.953 98.9347 168.36C99.0995 168.733 99.561 168.964 100.121 168.964C100.484 168.964 100.649 168.898 100.902 168.645C101.319 168.228 101.319 167.788 100.902 167.052C100.561 166.458 100.264 165.546 100.132 164.7C100.067 164.272 100.034 164.228 99.9786 164.459Z" fill="white"/>
<path d="M83.2647 167.371C83.0779 169.392 82.5285 171.25 81.5615 173.074C80.9681 174.228 80.9021 174.557 81.1768 175.206C81.7153 176.513 83.2757 177.041 84.6163 176.37C85.7262 175.81 86.1438 174.59 85.5723 173.579C84.4515 171.634 83.8911 170.008 83.5284 167.7L83.3526 166.491L83.2647 167.371Z" fill="white"/>
<path d="M96.9347 169.722C96.9347 170.975 96.2754 173.206 95.5392 174.48C94.7699 175.799 95.3304 177.052 96.7809 177.271C97.9787 177.447 99.1874 176.37 98.9786 175.326C98.9457 175.151 98.7259 174.689 98.4951 174.293C97.9567 173.414 97.4512 171.887 97.2094 170.447C97.1105 169.843 97.0007 169.327 96.9787 169.305C96.9567 169.283 96.9347 169.469 96.9347 169.722Z" fill="white"/>
<line x1="76" y1="205.5" x2="116" y2="205.5" stroke="white"/>
<path d="M167.45 226H166.288V217.038H163.123V216.006H170.615V217.038H167.45V226ZM173.021 218.508V223.368C173.021 223.979 173.16 224.435 173.438 224.735C173.716 225.036 174.152 225.187 174.744 225.187C175.528 225.187 176.1 224.972 176.46 224.544C176.825 224.116 177.007 223.416 177.007 222.445V218.508H178.142V226H177.205L177.041 224.995H176.979C176.747 225.364 176.424 225.647 176.009 225.843C175.599 226.039 175.129 226.137 174.601 226.137C173.689 226.137 173.006 225.92 172.55 225.487C172.099 225.054 171.873 224.362 171.873 223.409V218.508H173.021ZM183.72 226.137C182.612 226.137 181.737 225.799 181.095 225.125C180.457 224.451 180.138 223.514 180.138 222.315C180.138 221.108 180.434 220.148 181.026 219.438C181.623 218.727 182.423 218.371 183.426 218.371C184.365 218.371 185.107 218.681 185.654 219.301C186.201 219.916 186.475 220.729 186.475 221.741V222.459H181.313C181.336 223.339 181.557 224.006 181.977 224.462C182.4 224.918 182.995 225.146 183.761 225.146C184.567 225.146 185.365 224.977 186.153 224.64V225.651C185.752 225.825 185.372 225.948 185.012 226.021C184.656 226.098 184.226 226.137 183.72 226.137ZM183.412 219.321C182.811 219.321 182.33 219.517 181.97 219.909C181.614 220.301 181.405 220.843 181.341 221.536H185.258C185.258 220.821 185.098 220.274 184.779 219.896C184.46 219.513 184.005 219.321 183.412 219.321ZM193.249 223.956C193.249 224.653 192.989 225.191 192.47 225.569C191.95 225.948 191.221 226.137 190.282 226.137C189.289 226.137 188.514 225.979 187.958 225.665V224.612C188.318 224.795 188.703 224.938 189.113 225.043C189.528 225.148 189.927 225.2 190.31 225.2C190.902 225.2 191.358 225.107 191.677 224.92C191.996 224.729 192.155 224.439 192.155 224.052C192.155 223.76 192.028 223.512 191.772 223.307C191.522 223.097 191.03 222.851 190.296 222.568C189.599 222.309 189.102 222.083 188.806 221.892C188.514 221.696 188.295 221.475 188.149 221.229C188.008 220.982 187.938 220.688 187.938 220.347C187.938 219.736 188.186 219.255 188.683 218.904C189.179 218.549 189.861 218.371 190.727 218.371C191.533 218.371 192.322 218.535 193.092 218.863L192.688 219.786C191.937 219.476 191.255 219.321 190.645 219.321C190.107 219.321 189.701 219.406 189.428 219.574C189.154 219.743 189.018 219.975 189.018 220.271C189.018 220.472 189.068 220.643 189.168 220.784C189.273 220.925 189.439 221.06 189.667 221.188C189.895 221.315 190.332 221.5 190.979 221.741C191.868 222.065 192.467 222.391 192.777 222.719C193.092 223.047 193.249 223.459 193.249 223.956ZM200.201 224.995H200.14C199.616 225.756 198.832 226.137 197.788 226.137C196.808 226.137 196.045 225.802 195.498 225.132C194.956 224.462 194.685 223.509 194.685 222.274C194.685 221.039 194.958 220.08 195.505 219.396C196.052 218.713 196.813 218.371 197.788 218.371C198.804 218.371 199.584 218.74 200.126 219.479H200.215L200.167 218.938L200.14 218.412V215.363H201.274V226H200.352L200.201 224.995ZM197.932 225.187C198.706 225.187 199.267 224.977 199.613 224.558C199.964 224.134 200.14 223.452 200.14 222.514V222.274C200.14 221.213 199.962 220.456 199.606 220.005C199.256 219.549 198.693 219.321 197.918 219.321C197.253 219.321 196.742 219.581 196.387 220.101C196.036 220.616 195.86 221.345 195.86 222.288C195.86 223.245 196.036 223.967 196.387 224.455C196.738 224.943 197.253 225.187 197.932 225.187ZM208.295 226L208.069 224.934H208.015C207.641 225.403 207.267 225.722 206.894 225.891C206.524 226.055 206.062 226.137 205.506 226.137C204.763 226.137 204.18 225.945 203.756 225.562C203.337 225.18 203.127 224.635 203.127 223.929C203.127 222.416 204.337 221.623 206.757 221.55L208.028 221.509V221.044C208.028 220.456 207.901 220.023 207.646 219.745C207.395 219.463 206.992 219.321 206.436 219.321C205.811 219.321 205.105 219.513 204.316 219.896L203.968 219.027C204.337 218.827 204.74 218.67 205.178 218.556C205.62 218.442 206.062 218.385 206.504 218.385C207.397 218.385 208.058 218.583 208.486 218.979C208.919 219.376 209.136 220.012 209.136 220.887V226H208.295ZM205.731 225.2C206.438 225.2 206.992 225.007 207.393 224.619C207.798 224.232 208.001 223.689 208.001 222.992V222.315L206.866 222.363C205.964 222.395 205.312 222.536 204.911 222.787C204.515 223.033 204.316 223.418 204.316 223.942C204.316 224.353 204.439 224.665 204.686 224.879C204.936 225.093 205.285 225.2 205.731 225.2ZM210.291 218.508H211.508L213.148 222.78C213.508 223.756 213.732 224.46 213.818 224.893H213.873C213.932 224.66 214.055 224.264 214.242 223.703C214.434 223.138 215.053 221.406 216.102 218.508H217.318L214.099 227.039C213.78 227.882 213.406 228.479 212.978 228.83C212.554 229.186 212.032 229.363 211.412 229.363C211.066 229.363 210.724 229.325 210.387 229.247V228.338C210.637 228.393 210.918 228.42 211.228 228.42C212.007 228.42 212.563 227.982 212.896 227.107L213.312 226.041L210.291 218.508Z" fill="white"/>
<circle cx="198.5" cy="188.5" r="1.5" stroke="white"/>
<path d="M184.888 197H183.78V189.877C183.78 189.285 183.799 188.724 183.835 188.195C183.739 188.291 183.632 188.391 183.514 188.496C183.395 188.601 182.853 189.045 181.887 189.829L181.285 189.05L183.931 187.006H184.888V197ZM195.265 191.271C195.265 195.182 193.752 197.137 190.726 197.137C190.197 197.137 189.778 197.091 189.468 197V196.022C189.832 196.141 190.247 196.2 190.712 196.2C191.806 196.2 192.631 195.863 193.187 195.188C193.747 194.509 194.052 193.47 194.103 192.071H194.021C193.77 192.45 193.437 192.739 193.022 192.939C192.608 193.135 192.141 193.233 191.621 193.233C190.737 193.233 190.035 192.969 189.516 192.44C188.996 191.912 188.736 191.174 188.736 190.226C188.736 189.187 189.026 188.366 189.604 187.765C190.188 187.163 190.953 186.862 191.901 186.862C192.58 186.862 193.173 187.038 193.679 187.389C194.189 187.735 194.581 188.243 194.854 188.913C195.128 189.578 195.265 190.365 195.265 191.271ZM191.901 187.833C191.25 187.833 190.746 188.043 190.391 188.462C190.035 188.881 189.857 189.465 189.857 190.212C189.857 190.868 190.021 191.385 190.35 191.764C190.678 192.137 191.177 192.324 191.847 192.324C192.261 192.324 192.642 192.24 192.988 192.071C193.339 191.903 193.615 191.673 193.815 191.381C194.016 191.089 194.116 190.784 194.116 190.465C194.116 189.986 194.023 189.544 193.836 189.139C193.649 188.733 193.387 188.414 193.05 188.182C192.717 187.949 192.334 187.833 191.901 187.833Z" fill="white"/>
<line x1="170" y1="205.5" x2="210" y2="205.5" stroke="white"/>
<path d="M256.103 226H254.954L252.938 219.308C252.842 219.011 252.735 218.638 252.616 218.187C252.498 217.735 252.436 217.464 252.432 217.373C252.331 217.975 252.172 218.633 251.953 219.349L249.998 226H248.85L246.19 216.006H247.421L249 222.179C249.219 223.045 249.378 223.828 249.479 224.53C249.602 223.696 249.784 222.881 250.025 222.083L251.816 216.006H253.047L254.927 222.138C255.146 222.844 255.33 223.642 255.48 224.53C255.567 223.883 255.731 223.095 255.973 222.165L257.545 216.006H258.775L256.103 226ZM263.335 226.137C262.228 226.137 261.353 225.799 260.71 225.125C260.072 224.451 259.753 223.514 259.753 222.315C259.753 221.108 260.049 220.148 260.642 219.438C261.239 218.727 262.038 218.371 263.041 218.371C263.98 218.371 264.723 218.681 265.27 219.301C265.816 219.916 266.09 220.729 266.09 221.741V222.459H260.929C260.951 223.339 261.173 224.006 261.592 224.462C262.016 224.918 262.61 225.146 263.376 225.146C264.183 225.146 264.98 224.977 265.769 224.64V225.651C265.368 225.825 264.987 225.948 264.627 226.021C264.271 226.098 263.841 226.137 263.335 226.137ZM263.027 219.321C262.426 219.321 261.945 219.517 261.585 219.909C261.229 220.301 261.02 220.843 260.956 221.536H264.873C264.873 220.821 264.714 220.274 264.395 219.896C264.076 219.513 263.62 219.321 263.027 219.321ZM273.131 224.995H273.069C272.545 225.756 271.761 226.137 270.718 226.137C269.738 226.137 268.975 225.802 268.428 225.132C267.885 224.462 267.614 223.509 267.614 222.274C267.614 221.039 267.888 220.08 268.435 219.396C268.981 218.713 269.743 218.371 270.718 218.371C271.734 218.371 272.513 218.74 273.056 219.479H273.145L273.097 218.938L273.069 218.412V215.363H274.204V226H273.281L273.131 224.995ZM270.861 225.187C271.636 225.187 272.197 224.977 272.543 224.558C272.894 224.134 273.069 223.452 273.069 222.514V222.274C273.069 221.213 272.892 220.456 272.536 220.005C272.185 219.549 271.622 219.321 270.848 219.321C270.182 219.321 269.672 219.581 269.316 220.101C268.965 220.616 268.79 221.345 268.79 222.288C268.79 223.245 268.965 223.967 269.316 224.455C269.667 224.943 270.182 225.187 270.861 225.187ZM281.744 226V221.153C281.744 220.543 281.605 220.087 281.327 219.786C281.049 219.485 280.614 219.335 280.021 219.335C279.238 219.335 278.663 219.547 278.299 219.971C277.934 220.395 277.752 221.094 277.752 222.069V226H276.617V218.508H277.54L277.725 219.533H277.779C278.012 219.164 278.338 218.879 278.757 218.679C279.176 218.474 279.643 218.371 280.158 218.371C281.061 218.371 281.74 218.59 282.195 219.027C282.651 219.46 282.879 220.155 282.879 221.112V226H281.744ZM288.382 226.137C287.274 226.137 286.399 225.799 285.757 225.125C285.119 224.451 284.8 223.514 284.8 222.315C284.8 221.108 285.096 220.148 285.688 219.438C286.285 218.727 287.085 218.371 288.088 218.371C289.027 218.371 289.77 218.681 290.316 219.301C290.863 219.916 291.137 220.729 291.137 221.741V222.459H285.976C285.998 223.339 286.219 224.006 286.639 224.462C287.062 224.918 287.657 225.146 288.423 225.146C289.229 225.146 290.027 224.977 290.815 224.64V225.651C290.414 225.825 290.034 225.948 289.674 226.021C289.318 226.098 288.888 226.137 288.382 226.137ZM288.074 219.321C287.473 219.321 286.992 219.517 286.632 219.909C286.276 220.301 286.067 220.843 286.003 221.536H289.92C289.92 220.821 289.76 220.274 289.441 219.896C289.122 219.513 288.667 219.321 288.074 219.321ZM297.911 223.956C297.911 224.653 297.651 225.191 297.132 225.569C296.612 225.948 295.883 226.137 294.944 226.137C293.951 226.137 293.176 225.979 292.62 225.665V224.612C292.98 224.795 293.365 224.938 293.775 225.043C294.19 225.148 294.589 225.2 294.972 225.2C295.564 225.2 296.02 225.107 296.339 224.92C296.658 224.729 296.817 224.439 296.817 224.052C296.817 223.76 296.69 223.512 296.435 223.307C296.184 223.097 295.692 222.851 294.958 222.568C294.261 222.309 293.764 222.083 293.468 221.892C293.176 221.696 292.957 221.475 292.812 221.229C292.67 220.982 292.6 220.688 292.6 220.347C292.6 219.736 292.848 219.255 293.345 218.904C293.841 218.549 294.523 218.371 295.389 218.371C296.195 218.371 296.984 218.535 297.754 218.863L297.351 219.786C296.599 219.476 295.917 219.321 295.307 219.321C294.769 219.321 294.363 219.406 294.09 219.574C293.816 219.743 293.68 219.975 293.68 220.271C293.68 220.472 293.73 220.643 293.83 220.784C293.935 220.925 294.101 221.06 294.329 221.188C294.557 221.315 294.994 221.5 295.642 221.741C296.53 222.065 297.13 222.391 297.439 222.719C297.754 223.047 297.911 223.459 297.911 223.956ZM304.863 224.995H304.802C304.278 225.756 303.494 226.137 302.45 226.137C301.47 226.137 300.707 225.802 300.16 225.132C299.618 224.462 299.347 223.509 299.347 222.274C299.347 221.039 299.62 220.08 300.167 219.396C300.714 218.713 301.475 218.371 302.45 218.371C303.466 218.371 304.246 218.74 304.788 219.479H304.877L304.829 218.938L304.802 218.412V215.363H305.937V226H305.014L304.863 224.995ZM302.594 225.187C303.368 225.187 303.929 224.977 304.275 224.558C304.626 224.134 304.802 223.452 304.802 222.514V222.274C304.802 221.213 304.624 220.456 304.269 220.005C303.918 219.549 303.355 219.321 302.58 219.321C301.915 219.321 301.404 219.581 301.049 220.101C300.698 220.616 300.522 221.345 300.522 222.288C300.522 223.245 300.698 223.967 301.049 224.455C301.4 224.943 301.915 225.187 302.594 225.187ZM312.957 226L312.731 224.934H312.677C312.303 225.403 311.929 225.722 311.556 225.891C311.187 226.055 310.724 226.137 310.168 226.137C309.425 226.137 308.842 225.945 308.418 225.562C307.999 225.18 307.789 224.635 307.789 223.929C307.789 222.416 308.999 221.623 311.419 221.55L312.69 221.509V221.044C312.69 220.456 312.563 220.023 312.308 219.745C312.057 219.463 311.654 219.321 311.098 219.321C310.473 219.321 309.767 219.513 308.979 219.896L308.63 219.027C308.999 218.827 309.402 218.67 309.84 218.556C310.282 218.442 310.724 218.385 311.166 218.385C312.059 218.385 312.72 218.583 313.148 218.979C313.581 219.376 313.798 220.012 313.798 220.887V226H312.957ZM310.394 225.2C311.1 225.2 311.654 225.007 312.055 224.619C312.46 224.232 312.663 223.689 312.663 222.992V222.315L311.528 222.363C310.626 222.395 309.974 222.536 309.573 222.787C309.177 223.033 308.979 223.418 308.979 223.942C308.979 224.353 309.102 224.665 309.348 224.879C309.598 225.093 309.947 225.2 310.394 225.2ZM314.953 218.508H316.17L317.811 222.78C318.171 223.756 318.394 224.46 318.48 224.893H318.535C318.594 224.66 318.717 224.264 318.904 223.703C319.096 223.138 319.715 221.406 320.764 218.508H321.98L318.761 227.039C318.442 227.882 318.068 228.479 317.64 228.83C317.216 229.186 316.694 229.363 316.074 229.363C315.728 229.363 315.386 229.325 315.049 229.247V228.338C315.299 228.393 315.58 228.42 315.89 228.42C316.669 228.42 317.225 227.982 317.558 227.107L317.975 226.041L314.953 218.508Z" fill="white"/>
<circle cx="292.5" cy="188.5" r="1.5" stroke="white"/>
<path d="M278.888 197H277.78V189.877C277.78 189.285 277.799 188.724 277.835 188.195C277.739 188.291 277.632 188.391 277.514 188.496C277.395 188.601 276.853 189.045 275.887 189.829L275.285 189.05L277.931 187.006H278.888V197ZM282.812 192.728C282.812 190.763 283.192 189.296 283.953 188.325C284.719 187.35 285.849 186.862 287.344 186.862C287.859 186.862 288.264 186.906 288.561 186.992V187.97C288.21 187.856 287.809 187.799 287.357 187.799C286.286 187.799 285.468 188.134 284.903 188.804C284.338 189.469 284.028 190.517 283.974 191.948H284.056C284.557 191.164 285.35 190.772 286.435 190.772C287.332 190.772 288.039 191.044 288.554 191.586C289.073 192.128 289.333 192.864 289.333 193.794C289.333 194.833 289.048 195.651 288.479 196.248C287.913 196.84 287.148 197.137 286.182 197.137C285.147 197.137 284.327 196.749 283.721 195.975C283.115 195.195 282.812 194.113 282.812 192.728ZM286.168 196.173C286.815 196.173 287.316 195.97 287.672 195.564C288.032 195.154 288.212 194.564 288.212 193.794C288.212 193.133 288.046 192.614 287.713 192.235C287.38 191.857 286.883 191.668 286.223 191.668C285.812 191.668 285.437 191.752 285.095 191.921C284.753 192.09 284.479 192.322 284.274 192.618C284.074 192.914 283.974 193.222 283.974 193.541C283.974 194.01 284.065 194.448 284.247 194.854C284.429 195.259 284.687 195.58 285.02 195.817C285.357 196.054 285.74 196.173 286.168 196.173Z" fill="white"/>
<line x1="264" y1="205.5" x2="304" y2="205.5" stroke="white"/>
<path d="M350.45 226H349.288V217.038H346.123V216.006H353.615V217.038H350.45V226ZM360.082 226V221.153C360.082 220.543 359.943 220.087 359.665 219.786C359.387 219.485 358.952 219.335 358.359 219.335C357.571 219.335 356.994 219.549 356.63 219.978C356.27 220.406 356.09 221.108 356.09 222.083V226H354.955V215.363H356.09V218.583C356.09 218.97 356.072 219.292 356.035 219.547H356.104C356.327 219.187 356.644 218.904 357.054 218.699C357.468 218.49 357.94 218.385 358.469 218.385C359.385 218.385 360.071 218.604 360.526 219.041C360.987 219.474 361.217 220.164 361.217 221.112V226H360.082ZM364.621 218.508V223.368C364.621 223.979 364.76 224.435 365.038 224.735C365.316 225.036 365.751 225.187 366.344 225.187C367.128 225.187 367.7 224.972 368.06 224.544C368.424 224.116 368.606 223.416 368.606 222.445V218.508H369.741V226H368.805L368.641 224.995H368.579C368.347 225.364 368.023 225.647 367.608 225.843C367.198 226.039 366.729 226.137 366.2 226.137C365.289 226.137 364.605 225.92 364.149 225.487C363.698 225.054 363.473 224.362 363.473 223.409V218.508H364.621ZM375.572 218.371C375.905 218.371 376.203 218.398 376.468 218.453L376.311 219.506C376.001 219.438 375.727 219.403 375.49 219.403C374.884 219.403 374.365 219.649 373.932 220.142C373.503 220.634 373.289 221.247 373.289 221.98V226H372.154V218.508H373.091L373.221 219.896H373.275C373.553 219.408 373.888 219.032 374.28 218.768C374.672 218.503 375.103 218.371 375.572 218.371ZM382.702 223.956C382.702 224.653 382.442 225.191 381.923 225.569C381.403 225.948 380.674 226.137 379.735 226.137C378.742 226.137 377.967 225.979 377.411 225.665V224.612C377.771 224.795 378.156 224.938 378.566 225.043C378.981 225.148 379.38 225.2 379.763 225.2C380.355 225.2 380.811 225.107 381.13 224.92C381.449 224.729 381.608 224.439 381.608 224.052C381.608 223.76 381.481 223.512 381.226 223.307C380.975 223.097 380.483 222.851 379.749 222.568C379.052 222.309 378.555 222.083 378.259 221.892C377.967 221.696 377.748 221.475 377.603 221.229C377.461 220.982 377.391 220.688 377.391 220.347C377.391 219.736 377.639 219.255 378.136 218.904C378.632 218.549 379.314 218.371 380.18 218.371C380.986 218.371 381.775 218.535 382.545 218.863L382.142 219.786C381.39 219.476 380.708 219.321 380.098 219.321C379.56 219.321 379.154 219.406 378.881 219.574C378.607 219.743 378.471 219.975 378.471 220.271C378.471 220.472 378.521 220.643 378.621 220.784C378.726 220.925 378.892 221.06 379.12 221.188C379.348 221.315 379.785 221.5 380.433 221.741C381.321 222.065 381.921 222.391 382.23 222.719C382.545 223.047 382.702 223.459 382.702 223.956ZM389.654 224.995H389.593C389.069 225.756 388.285 226.137 387.241 226.137C386.261 226.137 385.498 225.802 384.951 225.132C384.409 224.462 384.138 223.509 384.138 222.274C384.138 221.039 384.411 220.08 384.958 219.396C385.505 218.713 386.266 218.371 387.241 218.371C388.257 218.371 389.037 218.74 389.579 219.479H389.668L389.62 218.938L389.593 218.412V215.363H390.728V226H389.805L389.654 224.995ZM387.385 225.187C388.16 225.187 388.72 224.977 389.066 224.558C389.417 224.134 389.593 223.452 389.593 222.514V222.274C389.593 221.213 389.415 220.456 389.06 220.005C388.709 219.549 388.146 219.321 387.371 219.321C386.706 219.321 386.195 219.581 385.84 220.101C385.489 220.616 385.313 221.345 385.313 222.288C385.313 223.245 385.489 223.967 385.84 224.455C386.191 224.943 386.706 225.187 387.385 225.187ZM397.748 226L397.522 224.934H397.468C397.094 225.403 396.72 225.722 396.347 225.891C395.978 226.055 395.515 226.137 394.959 226.137C394.216 226.137 393.633 225.945 393.209 225.562C392.79 225.18 392.58 224.635 392.58 223.929C392.58 222.416 393.79 221.623 396.21 221.55L397.481 221.509V221.044C397.481 220.456 397.354 220.023 397.099 219.745C396.848 219.463 396.445 219.321 395.889 219.321C395.264 219.321 394.558 219.513 393.77 219.896L393.421 219.027C393.79 218.827 394.193 218.67 394.631 218.556C395.073 218.442 395.515 218.385 395.957 218.385C396.85 218.385 397.511 218.583 397.939 218.979C398.372 219.376 398.589 220.012 398.589 220.887V226H397.748ZM395.185 225.2C395.891 225.2 396.445 225.007 396.846 224.619C397.251 224.232 397.454 223.689 397.454 222.992V222.315L396.319 222.363C395.417 222.395 394.765 222.536 394.364 222.787C393.968 223.033 393.77 223.418 393.77 223.942C393.77 224.353 393.893 224.665 394.139 224.879C394.389 225.093 394.738 225.2 395.185 225.2ZM399.744 218.508H400.961L402.602 222.78C402.962 223.756 403.185 224.46 403.271 224.893H403.326C403.385 224.66 403.508 224.264 403.695 223.703C403.887 223.138 404.507 221.406 405.555 218.508H406.771L403.552 227.039C403.233 227.882 402.859 228.479 402.431 228.83C402.007 229.186 401.485 229.363 400.865 229.363C400.519 229.363 400.177 229.325 399.84 229.247V228.338C400.09 228.393 400.371 228.42 400.681 228.42C401.46 228.42 402.016 227.982 402.349 227.107L402.766 226.041L399.744 218.508Z" fill="white"/>
<circle cx="386.5" cy="188.5" r="1.5" stroke="white"/>
<path d="M372.888 197H371.78V189.877C371.78 189.285 371.799 188.724 371.835 188.195C371.739 188.291 371.632 188.391 371.514 188.496C371.395 188.601 370.853 189.045 369.887 189.829L369.285 189.05L371.931 187.006H372.888V197ZM383.265 197H376.695V196.022L379.327 193.377C380.129 192.566 380.658 191.987 380.913 191.641C381.168 191.294 381.36 190.957 381.487 190.629C381.615 190.301 381.679 189.948 381.679 189.569C381.679 189.036 381.517 188.615 381.193 188.305C380.87 187.99 380.421 187.833 379.847 187.833C379.432 187.833 379.038 187.901 378.664 188.038C378.295 188.175 377.882 188.423 377.427 188.783L376.825 188.011C377.746 187.245 378.748 186.862 379.833 186.862C380.772 186.862 381.508 187.104 382.041 187.587C382.574 188.065 382.841 188.71 382.841 189.521C382.841 190.155 382.663 190.782 382.308 191.401C381.952 192.021 381.287 192.805 380.312 193.753L378.124 195.893V195.947H383.265V197Z" fill="white"/>
<line x1="358" y1="205.5" x2="398" y2="205.5" stroke="white"/>
<path d="M453.536 226H452.374V216.006H457.945V217.038H453.536V220.695H457.679V221.728H453.536V226ZM462.854 218.371C463.186 218.371 463.485 218.398 463.749 218.453L463.592 219.506C463.282 219.438 463.008 219.403 462.771 219.403C462.165 219.403 461.646 219.649 461.213 220.142C460.785 220.634 460.57 221.247 460.57 221.98V226H459.436V218.508H460.372L460.502 219.896H460.557C460.835 219.408 461.17 219.032 461.562 218.768C461.953 218.503 462.384 218.371 462.854 218.371ZM466.285 226H465.15V218.508H466.285V226ZM465.055 216.478C465.055 216.218 465.118 216.029 465.246 215.91C465.374 215.787 465.533 215.726 465.725 215.726C465.907 215.726 466.064 215.787 466.196 215.91C466.328 216.033 466.395 216.222 466.395 216.478C466.395 216.733 466.328 216.924 466.196 217.052C466.064 217.175 465.907 217.236 465.725 217.236C465.533 217.236 465.374 217.175 465.246 217.052C465.118 216.924 465.055 216.733 465.055 216.478ZM473.791 224.995H473.729C473.205 225.756 472.422 226.137 471.378 226.137C470.398 226.137 469.635 225.802 469.088 225.132C468.546 224.462 468.274 223.509 468.274 222.274C468.274 221.039 468.548 220.08 469.095 219.396C469.642 218.713 470.403 218.371 471.378 218.371C472.394 218.371 473.174 218.74 473.716 219.479H473.805L473.757 218.938L473.729 218.412V215.363H474.864V226H473.941L473.791 224.995ZM471.521 225.187C472.296 225.187 472.857 224.977 473.203 224.558C473.554 224.134 473.729 223.452 473.729 222.514V222.274C473.729 221.213 473.552 220.456 473.196 220.005C472.845 219.549 472.283 219.321 471.508 219.321C470.842 219.321 470.332 219.581 469.977 220.101C469.626 220.616 469.45 221.345 469.45 222.288C469.45 223.245 469.626 223.967 469.977 224.455C470.327 224.943 470.842 225.187 471.521 225.187ZM481.885 226L481.659 224.934H481.604C481.231 225.403 480.857 225.722 480.483 225.891C480.114 226.055 479.652 226.137 479.096 226.137C478.353 226.137 477.77 225.945 477.346 225.562C476.926 225.18 476.717 224.635 476.717 223.929C476.717 222.416 477.927 221.623 480.347 221.55L481.618 221.509V221.044C481.618 220.456 481.491 220.023 481.235 219.745C480.985 219.463 480.581 219.321 480.025 219.321C479.401 219.321 478.695 219.513 477.906 219.896L477.558 219.027C477.927 218.827 478.33 218.67 478.768 218.556C479.21 218.442 479.652 218.385 480.094 218.385C480.987 218.385 481.648 218.583 482.076 218.979C482.509 219.376 482.726 220.012 482.726 220.887V226H481.885ZM479.321 225.2C480.028 225.2 480.581 225.007 480.982 224.619C481.388 224.232 481.591 223.689 481.591 222.992V222.315L480.456 222.363C479.554 222.395 478.902 222.536 478.501 222.787C478.104 223.033 477.906 223.418 477.906 223.942C477.906 224.353 478.029 224.665 478.275 224.879C478.526 225.093 478.875 225.2 479.321 225.2ZM483.881 218.508H485.098L486.738 222.78C487.098 223.756 487.322 224.46 487.408 224.893H487.463C487.522 224.66 487.645 224.264 487.832 223.703C488.023 223.138 488.643 221.406 489.691 218.508H490.908L487.688 227.039C487.369 227.882 486.996 228.479 486.567 228.83C486.144 229.186 485.622 229.363 485.002 229.363C484.656 229.363 484.314 229.325 483.977 229.247V228.338C484.227 228.393 484.507 228.42 484.817 228.42C485.597 228.42 486.153 227.982 486.485 227.107L486.902 226.041L483.881 218.508Z" fill="white"/>
<circle cx="480.5" cy="188.5" r="1.5" stroke="white"/>
<path d="M469.253 197H462.684V196.022L465.315 193.377C466.118 192.566 466.646 191.987 466.901 191.641C467.157 191.294 467.348 190.957 467.476 190.629C467.603 190.301 467.667 189.948 467.667 189.569C467.667 189.036 467.505 188.615 467.182 188.305C466.858 187.99 466.409 187.833 465.835 187.833C465.42 187.833 465.026 187.901 464.652 188.038C464.283 188.175 463.871 188.423 463.415 188.783L462.813 188.011C463.734 187.245 464.737 186.862 465.821 186.862C466.76 186.862 467.496 187.104 468.029 187.587C468.562 188.065 468.829 188.71 468.829 189.521C468.829 190.155 468.651 190.782 468.296 191.401C467.94 192.021 467.275 192.805 466.3 193.753L464.112 195.893V195.947H469.253V197ZM470.812 192.728C470.812 190.763 471.192 189.296 471.953 188.325C472.719 187.35 473.849 186.862 475.344 186.862C475.859 186.862 476.264 186.906 476.561 186.992V187.97C476.21 187.856 475.809 187.799 475.357 187.799C474.286 187.799 473.468 188.134 472.903 188.804C472.338 189.469 472.028 190.517 471.974 191.948H472.056C472.557 191.164 473.35 190.772 474.435 190.772C475.332 190.772 476.039 191.044 476.554 191.586C477.073 192.128 477.333 192.864 477.333 193.794C477.333 194.833 477.048 195.651 476.479 196.248C475.913 196.84 475.148 197.137 474.182 197.137C473.147 197.137 472.327 196.749 471.721 195.975C471.115 195.195 470.812 194.113 470.812 192.728ZM474.168 196.173C474.815 196.173 475.316 195.97 475.672 195.564C476.032 195.154 476.212 194.564 476.212 193.794C476.212 193.133 476.046 192.614 475.713 192.235C475.38 191.857 474.883 191.668 474.223 191.668C473.812 191.668 473.437 191.752 473.095 191.921C472.753 192.09 472.479 192.322 472.274 192.618C472.074 192.914 471.974 193.222 471.974 193.541C471.974 194.01 472.065 194.448 472.247 194.854C472.429 195.259 472.687 195.58 473.02 195.817C473.357 196.054 473.74 196.173 474.168 196.173Z" fill="white"/>
<line x1="452" y1="205.5" x2="492" y2="205.5" stroke="white"/>
<path d="M187.193 142.154C186.694 142.283 185.722 142.668 185.052 143.025C182.859 144.195 181.125 146.522 180.665 148.948C180.508 149.761 180.494 149.804 180.166 149.719C177.369 148.934 174.781 149.733 172.864 151.945C171.721 153.272 171.091 154.799 170.907 156.655L170.815 157.597L170.263 157.782C167.348 158.724 165.798 161.165 166.021 164.433C166.218 167.216 168.32 169.642 171.038 170.199L171.944 170.384L172.233 169.985C172.391 169.771 172.641 169.357 172.798 169.057C173.074 168.529 173.074 168.515 172.811 168.586C172.43 168.7 170.894 168.372 170.237 168.03C169.41 167.616 168.464 166.645 168.083 165.832C167.702 164.99 167.584 163.634 167.807 162.549C168.136 160.979 169.108 160.123 171.406 159.338L172.706 158.91L172.627 157.811C172.378 154.614 174.374 151.874 177.342 151.317C178.511 151.103 179.562 151.331 180.994 152.131L182.136 152.787V151.388C182.136 149.034 182.767 147.392 184.224 145.894C186.444 143.639 189.425 143.168 192.197 144.652C193.996 145.608 195.414 147.563 195.808 149.619C195.9 150.118 195.94 151.06 195.9 152.045L195.835 153.643L197.003 152.416C197.831 151.545 198.422 151.06 199.052 150.746C199.867 150.318 200.037 150.289 201.324 150.289C202.651 150.289 202.743 150.304 203.702 150.832C204.87 151.46 205.829 152.502 206.381 153.758C206.67 154.414 206.749 154.828 206.801 155.856C206.827 156.555 206.788 157.411 206.722 157.754C206.604 158.31 206.617 158.353 206.88 158.41C208.18 158.71 208.64 158.881 209.31 159.352C211.24 160.708 211.831 163.234 210.767 165.575C210.255 166.716 209.467 167.616 208.548 168.115L207.891 168.486L208.167 169.328L208.456 170.185L208.916 169.971C211.726 168.715 213.539 164.975 212.856 161.793C212.409 159.68 210.741 157.725 208.771 157.012C208.574 156.954 208.535 156.769 208.535 156.027C208.535 152.787 206.46 149.818 203.413 148.705C202.323 148.306 200.208 148.334 199.079 148.762C198.606 148.948 198.08 149.176 197.897 149.276C197.581 149.476 197.581 149.476 197.227 148.348C196.754 146.836 196.163 145.794 195.112 144.652C194.167 143.624 192.774 142.725 191.461 142.311C190.423 141.969 188.322 141.898 187.193 142.154Z" fill="white"/>
<path d="M187.534 164.433C187.508 165.275 187.166 167.402 186.851 168.529C186.707 169.057 186.273 170.185 185.879 171.027C185.091 172.711 185.012 173.196 185.42 174.052C186.26 175.836 188.782 175.936 189.846 174.209C190.226 173.581 190.253 172.597 189.885 171.912C188.703 169.657 188.204 168.115 187.784 165.375C187.626 164.347 187.547 164.033 187.534 164.433Z" fill="white"/>
<path d="M198.054 166.46C197.949 167.173 197.713 167.987 197.371 168.743C196.793 170.056 196.78 170.156 197.003 170.698C197.2 171.184 197.752 171.483 198.422 171.483C198.855 171.483 199.052 171.398 199.354 171.069C199.867 170.513 199.84 170.085 199.223 168.7C198.934 168.072 198.606 167.088 198.501 166.517C198.396 165.932 198.291 165.446 198.264 165.418C198.238 165.389 198.146 165.86 198.054 166.46Z" fill="white"/>
<path d="M178.275 169.271C177.999 172.083 177.185 175.037 176.2 176.821C175.701 177.72 175.635 177.934 175.635 178.705C175.635 179.847 176.055 180.575 177.027 181.103C178.288 181.773 179.733 181.517 180.639 180.46C181.519 179.433 181.532 178.234 180.678 176.835C179.746 175.294 178.905 172.454 178.551 169.628L178.38 168.272L178.275 169.271Z" fill="white"/>
<path d="M194.574 172.768C194.442 174.466 193.891 176.55 193.168 178.12C192.433 179.718 192.341 180.389 192.774 181.16C192.919 181.417 193.221 181.745 193.457 181.888C195.493 183.243 197.988 180.903 196.688 178.876C196.294 178.263 195.585 176.507 195.335 175.537C195.217 175.066 195.02 173.995 194.889 173.182L194.666 171.697L194.574 172.768Z" fill="white"/>
<path d="M279.142 142.123C278.67 142.202 277.855 142.42 277.33 142.618C274.952 143.461 273.362 144.898 272.732 146.762C272.508 147.406 272.482 147.436 272.167 147.366C270.735 147.079 269.776 147.069 268.436 147.327C267.096 147.584 266.255 147.941 265.191 148.685C263.89 149.606 263.141 150.756 262.997 152.075L262.905 152.808L262.222 152.987C259.739 153.621 258.425 154.721 258.07 156.456C257.558 158.974 259.896 161.264 263.391 161.64L264.008 161.71L264.534 161.115C264.836 160.788 265.072 160.5 265.072 160.48C265.072 160.451 264.613 160.421 264.035 160.391C262.773 160.332 261.762 159.995 260.895 159.35C260.015 158.686 259.752 158.161 259.752 157.09C259.752 156.287 259.791 156.149 260.146 155.663C260.724 154.86 261.696 154.404 263.746 153.968L264.705 153.75L264.639 153.145C264.455 151.252 265.624 149.656 267.805 148.843C268.764 148.486 268.856 148.466 270.143 148.466H271.483L272.81 148.972L274.137 149.478V148.576C274.137 146.91 274.768 145.76 276.252 144.71C279.011 142.747 283.294 142.757 285.961 144.749C287.445 145.85 287.931 146.841 287.931 148.744V150.033L289.061 149.22C289.836 148.645 290.454 148.308 291.058 148.09C291.886 147.792 292.03 147.773 293.383 147.773C294.763 147.773 294.881 147.792 295.722 148.1C297.324 148.694 298.467 149.815 298.835 151.143C298.98 151.688 298.967 152.283 298.756 153.046C298.678 153.353 298.678 153.353 299.44 153.472C301.082 153.72 302.356 154.464 303 155.524C303.289 156.01 303.328 156.168 303.276 156.922C303.223 157.616 303.144 157.893 302.829 158.369C302.369 159.083 301.463 159.816 300.661 160.114C300.346 160.233 300.057 160.352 300.031 160.371C300.004 160.391 300.083 160.659 300.228 160.956C300.451 161.472 300.491 161.511 300.806 161.452C301.922 161.244 303.565 160.114 304.261 159.063C304.865 158.151 305.062 157.457 304.983 156.416C304.931 155.693 304.852 155.465 304.445 154.83C303.827 153.889 302.658 153.036 301.45 152.64L300.609 152.362L300.582 151.668C300.477 148.873 297.495 146.603 293.712 146.454C292.477 146.405 291.386 146.573 290.217 146.97L289.547 147.198L289.376 146.702C289.114 145.929 288.273 144.759 287.537 144.135C286.618 143.362 285.146 142.638 283.819 142.311C282.479 141.984 280.43 141.904 279.142 142.123Z" fill="white"/>
<path d="M291.505 157.308C291.308 158.27 291.005 158.974 290.441 159.777C290.217 160.104 290.033 160.48 290.033 160.619C290.033 161.115 290.927 161.7 291.675 161.7C292.214 161.7 292.91 161.412 293.121 161.095C293.423 160.669 293.357 160.352 292.871 159.687C292.345 158.984 291.912 157.943 291.767 157.09L291.675 156.496L291.505 157.308Z" fill="white"/>
<path d="M275.595 157.824C275.372 158.954 275.004 159.826 274.387 160.679C274.111 161.075 273.874 161.521 273.874 161.67C273.874 162.126 274.347 162.582 275.031 162.81C275.569 162.998 275.714 163.008 276.239 162.899C276.568 162.83 277.014 162.651 277.224 162.483C277.566 162.235 277.619 162.116 277.619 161.67C277.619 161.254 277.527 161.055 277.185 160.659C276.673 160.074 276.16 158.894 275.924 157.794L275.766 156.991L275.595 157.824Z" fill="white"/>
<path d="M265.283 161.055C264.902 162.959 264.495 163.92 263.562 165.169C262.944 166.012 263.246 166.844 264.337 167.241C265.848 167.796 267.608 167.102 267.608 165.962C267.608 165.694 267.464 165.387 267.148 164.991C266.885 164.663 266.531 164.118 266.347 163.771C266.045 163.187 265.532 161.571 265.427 160.857C265.401 160.619 265.375 160.659 265.283 161.055Z" fill="white"/>
<path d="M281.809 163.167C281.153 163.97 279.392 166.081 277.908 167.865L275.215 171.117L279.799 171.136L284.384 171.166L280.167 176.073C274.873 182.238 274.742 182.387 274.899 182.268C274.965 182.209 278.026 179.423 281.691 176.073L288.339 169.977L283.478 169.947C280.798 169.937 278.604 169.887 278.604 169.838C278.604 169.788 279.76 167.964 281.166 165.774C282.571 163.583 283.727 161.779 283.727 161.749C283.727 161.719 283.57 161.7 283.373 161.7C283.044 161.7 282.874 161.858 281.809 163.167Z" fill="white"/>
<path d="M286.631 163.742C286.604 164.277 286.105 165.566 285.698 166.14C285.199 166.844 285.186 167.181 285.685 167.558C286.434 168.123 287.892 167.865 288.128 167.122C288.194 166.943 288.063 166.636 287.669 166.041C287.353 165.546 287.025 164.852 286.88 164.326C286.749 163.831 286.631 163.573 286.631 163.742Z" fill="white"/>
<path d="M375.828 142.044C375.46 142.094 374.75 142.224 374.251 142.343C371.61 142.951 369.206 144.904 368.654 146.887C368.51 147.425 368.484 147.445 368.168 147.386C367.984 147.346 367.209 147.296 366.447 147.266C365.357 147.226 364.871 147.256 364.28 147.386C361.271 148.043 359.274 149.877 358.906 152.288L358.814 152.906L357.96 153.125C356.896 153.394 355.622 154.032 355.083 154.58C354.492 155.178 354.098 156.025 354.019 156.902C353.888 158.257 354.439 159.413 355.622 160.33C356.449 160.968 357.185 161.297 358.368 161.576C359.786 161.905 359.931 161.885 360.548 161.187L361.087 160.589H360.562C359.826 160.589 358.735 160.4 358.144 160.171C357.435 159.902 356.528 159.244 356.108 158.706C355.793 158.287 355.753 158.148 355.753 157.251C355.753 156.125 355.937 155.726 356.725 155.128C357.211 154.76 358.394 154.311 359.366 154.122C359.694 154.052 360.128 153.952 360.338 153.893C360.706 153.783 360.706 153.773 360.627 153.125C360.456 151.82 361.021 150.654 362.243 149.717C363.097 149.08 364.083 148.691 365.291 148.531C366.474 148.372 367.525 148.531 368.878 149.06C369.469 149.289 369.981 149.488 370.047 149.508C370.1 149.528 370.139 149.099 370.139 148.561C370.139 147.057 370.612 146.05 371.807 145.044C373.174 143.888 374.908 143.31 377.036 143.31C378.587 143.3 379.651 143.539 380.873 144.137C383.08 145.243 384.026 146.738 383.907 148.98L383.855 150.116L384.998 149.279C385.668 148.811 386.456 148.342 386.876 148.183C389.596 147.176 392.802 147.983 394.26 150.046L394.772 150.774V152.139V153.494L395.363 153.554C396.756 153.693 398.319 154.54 398.937 155.487C399.187 155.876 399.239 156.115 399.239 156.902C399.239 157.809 399.213 157.879 398.74 158.556C398.162 159.373 397.544 159.872 396.598 160.26L395.915 160.539L396.204 161.117L396.48 161.685L397.308 161.386C397.846 161.197 398.451 160.858 398.976 160.46C402.195 158.018 401.473 154.202 397.531 152.767L396.546 152.408V151.8C396.546 149.618 394.496 147.505 391.685 146.778C389.885 146.319 388.046 146.389 386.338 146.987C385.931 147.126 385.589 147.226 385.576 147.216C385.55 147.196 385.366 146.808 385.155 146.339C384.026 143.838 381.083 142.174 377.509 142.014C376.957 141.984 376.209 142.004 375.828 142.044Z" fill="white"/>
<path d="M387.678 158.616C387.638 158.686 387.625 162.243 387.638 166.518L387.678 174.291H388.072H388.466V166.419V158.546L388.098 158.516C387.888 158.496 387.717 158.536 387.678 158.616Z" fill="white"/>
<path d="M364.569 159.642C364.45 159.892 364.477 175.068 364.608 175.218C364.674 175.297 364.884 175.337 365.094 175.317L365.475 175.288V167.415V159.543L365.068 159.513C364.779 159.493 364.634 159.533 364.569 159.642Z" fill="white"/>
<path d="M369.508 161.865C369.377 161.934 369.351 163.589 369.377 169.817L369.416 177.679H369.811H370.205L370.244 169.817C370.27 161.775 370.27 161.785 369.811 161.785C369.745 161.785 369.6 161.825 369.508 161.865Z" fill="white"/>
<path d="M375.158 166.498C373.699 169.079 372.504 171.232 372.504 171.272C372.504 171.321 373.896 171.351 375.591 171.351C377.851 171.351 378.679 171.381 378.679 171.471C378.679 171.561 377.483 173.613 372.675 181.815C372.491 182.114 372.399 182.333 372.451 182.283C372.504 182.243 374.566 179.513 377.036 176.204L381.529 170.205L378.127 170.175C376.261 170.166 374.737 170.116 374.737 170.076C374.737 170.036 375.539 168.192 376.511 165.97C377.483 163.748 378.284 161.905 378.284 161.865C378.284 161.815 378.179 161.785 378.061 161.785C377.877 161.785 377.22 162.861 375.158 166.498Z" fill="white"/>
<path d="M382.239 163.469C382.134 163.599 382.094 166.08 382.094 171.292C382.094 178.088 382.121 178.925 382.305 179.064C382.528 179.244 382.725 179.264 382.988 179.144C383.119 179.074 383.145 177.42 383.119 171.192L383.08 163.33L382.725 163.3C382.488 163.28 382.331 163.33 382.239 163.469Z" fill="white"/>
<path d="M481.939 142.058C481.834 142.09 481.803 142.758 481.803 144.856C481.803 147.507 481.813 147.622 482.012 147.727C482.158 147.81 482.283 147.81 482.429 147.727C482.628 147.622 482.638 147.507 482.638 144.929C482.638 142.977 482.607 142.205 482.513 142.111C482.387 141.985 482.168 141.964 481.939 142.058Z" fill="white"/>
<path d="M488.212 146.902C487.356 148.008 486.615 148.969 486.573 149.052C486.386 149.376 486.73 149.773 487.075 149.647C487.221 149.585 489.883 146.265 490.3 145.618C490.53 145.274 490.373 144.908 490.018 144.908C489.83 144.908 489.423 145.357 488.212 146.902Z" fill="white"/>
<path d="M473.348 145.691C473.285 145.775 473.254 145.921 473.285 146.025C473.379 146.307 476.719 150.065 476.907 150.107C477.105 150.138 477.419 149.867 477.419 149.668C477.419 149.595 476.636 148.635 475.686 147.539C473.911 145.493 473.671 145.305 473.348 145.691Z" fill="white"/>
<path d="M480.665 148.624C477.648 149.439 475.592 152.194 475.78 155.159L475.832 155.973H475.404C474.809 155.973 473.744 156.234 473.128 156.537L472.627 156.777L472.45 156.192C472.366 155.879 472.147 155.337 471.97 155.002C471.803 154.668 471.677 154.376 471.698 154.355C471.719 154.334 472.418 154.376 473.264 154.439C474.506 154.533 474.819 154.522 474.955 154.418C475.153 154.251 475.174 153.948 474.997 153.802C474.924 153.75 473.953 153.625 472.836 153.531L470.821 153.353L470.331 152.956C468.253 151.234 465.435 150.921 462.909 152.132C461.228 152.936 459.798 154.71 459.433 156.443C459.349 156.84 459.276 157.007 459.182 156.975C459.109 156.944 458.733 156.861 458.357 156.798C456.092 156.401 453.629 157.643 452.543 159.7C452.125 160.504 451.969 161.047 451.865 161.955L451.791 162.571L451.155 162.8C449.224 163.5 448.221 164.742 448.023 166.673C447.783 168.97 449.443 171.12 451.885 171.684C452.449 171.819 453.775 171.84 460.059 171.83C464.182 171.83 470.258 171.861 473.556 171.903C480.248 171.986 480.592 171.955 481.792 171.36C483.703 170.4 484.955 168.03 484.632 165.984C484.381 164.46 483.369 163.124 481.928 162.424C481.25 162.09 481.229 162.07 481.229 161.683V161.297H482.168C483.859 161.297 485.373 160.712 486.553 159.616C487.419 158.802 487.93 158.019 488.317 156.913C488.588 156.13 488.63 155.89 488.63 154.877C488.63 153.865 488.588 153.625 488.317 152.842C488.139 152.351 487.826 151.683 487.607 151.359C486.751 150.054 485.258 149 483.734 148.614C482.962 148.416 481.417 148.426 480.665 148.624ZM483.4 149.971C484.663 150.295 485.801 151.13 486.511 152.226C487.482 153.739 487.482 156.015 486.511 157.529C485.383 159.272 483.348 160.201 481.354 159.867C480.989 159.815 480.926 159.752 480.582 159.063C480.091 158.082 479.058 157.059 478.087 156.589C477.69 156.401 477.356 156.234 477.335 156.224C477.325 156.213 477.262 155.911 477.199 155.556C477.001 154.314 477.377 152.925 478.212 151.787C478.588 151.265 479.621 150.451 480.195 150.222C481.208 149.814 482.419 149.72 483.4 149.971ZM467.397 152.967C469.005 153.353 470.487 154.721 471.072 156.36C471.26 156.871 471.281 157.184 471.27 158.416L471.26 159.867L472.178 158.98C472.721 158.458 473.327 157.988 473.661 157.821C476.062 156.652 478.922 157.925 479.663 160.504C479.83 161.078 479.84 162.007 479.694 163.009C479.663 163.176 479.767 163.228 480.3 163.333C481.573 163.604 482.523 164.324 483.003 165.379C483.254 165.953 483.285 166.109 483.243 166.871C483.202 167.55 483.129 167.842 482.868 168.354C482.471 169.126 481.772 169.857 481.104 170.18C480.446 170.494 478.88 170.598 475.853 170.535C474.621 170.504 468.786 170.462 462.877 170.431C453.211 170.379 452.115 170.358 451.708 170.201C450.737 169.826 449.996 169.147 449.62 168.301C449.453 167.926 449.422 167.675 449.464 166.892C449.516 165.848 449.641 165.504 450.194 164.961C450.633 164.523 451.28 164.199 452.261 163.907C453.232 163.625 453.336 163.51 453.253 162.758C452.961 160.107 455.455 157.758 458.117 158.176C458.796 158.28 459.234 158.447 459.986 158.896C460.278 159.063 460.539 159.209 460.56 159.209C460.591 159.209 460.612 158.844 460.612 158.395C460.623 156.714 461.04 155.587 462.074 154.481C462.909 153.583 464.057 152.998 465.362 152.8C465.779 152.748 466.813 152.831 467.397 152.967Z" fill="white"/>
<path d="M491.688 152.831C490.039 153.03 489.381 153.155 489.319 153.259C489.058 153.666 489.371 154.011 489.924 153.938C490.384 153.865 494.664 153.364 494.768 153.364C494.945 153.364 495.071 152.946 494.956 152.737C494.81 152.466 494.601 152.476 491.688 152.831Z" fill="white"/>
<path d="M488.609 158.604C488.432 158.781 488.452 159.042 488.672 159.23C488.766 159.314 489.809 159.888 490.979 160.504C493.254 161.694 493.62 161.798 493.682 161.287C493.703 161.14 493.651 160.973 493.578 160.911C493.317 160.702 489.027 158.479 488.88 158.479C488.797 158.479 488.682 158.531 488.609 158.604Z" fill="white"/>
<path d="M484.162 161.464C484.068 161.548 483.995 161.683 483.995 161.746C483.995 161.819 484.392 162.978 484.872 164.324L485.738 166.777H486.093C486.344 166.777 486.459 166.725 486.479 166.59C486.532 166.318 484.851 161.579 484.653 161.422C484.423 161.255 484.36 161.266 484.162 161.464Z" fill="white"/>
</svg>
